<?xml version="1.0" encoding="utf-8" standalone="no"?>
<!DOCTYPE svg PUBLIC "-//W3C//DTD SVG 1.1//EN"
  "http://www.w3.org/Graphics/SVG/1.1/DTD/svg11.dtd">
<!-- Created with matplotlib (https://matplotlib.org/) -->
<svg height="345.6pt" version="1.1" viewBox="0 0 460.8 345.6" width="460.8pt" xmlns="http://www.w3.org/2000/svg" xmlns:xlink="http://www.w3.org/1999/xlink">
 <metadata>
  <rdf:RDF xmlns:cc="http://creativecommons.org/ns#" xmlns:dc="http://purl.org/dc/elements/1.1/" xmlns:rdf="http://www.w3.org/1999/02/22-rdf-syntax-ns#">
   <cc:Work>
    <dc:type rdf:resource="http://purl.org/dc/dcmitype/StillImage"/>
    <dc:date>2021-03-15T22:12:24.206613</dc:date>
    <dc:format>image/svg+xml</dc:format>
    <dc:creator>
     <cc:Agent>
      <dc:title>Matplotlib v3.3.2, https://matplotlib.org/</dc:title>
     </cc:Agent>
    </dc:creator>
   </cc:Work>
  </rdf:RDF>
 </metadata>
 <defs>
  <style type="text/css">*{stroke-linecap:butt;stroke-linejoin:round;}</style>
 </defs>
 <g id="figure_1">
  <g id="patch_1">
   <path d="M 0 345.6 
L 460.8 345.6 
L 460.8 0 
L 0 0 
z
" style="fill:#ffffff;"/>
  </g>
  <g id="axes_1">
   <g id="patch_2">
    <path d="M 57.6 162.432 
L 219.927273 162.432 
L 219.927273 41.472 
L 57.6 41.472 
z
" style="fill:#ffffff;"/>
   </g>
   <g id="matplotlib.axis_1">
    <g id="xtick_1">
     <g id="line2d_1">
      <path clip-path="url(#p751f3b4c7a)" d="M 64.978512 162.432 
L 64.978512 41.472 
" style="fill:none;stroke:#b0b0b0;stroke-linecap:square;stroke-width:0.8;"/>
     </g>
     <g id="line2d_2">
      <defs>
       <path d="M 0 0 
L 0 3.5 
" id="m0ee3f5d2b4" style="stroke:#000000;stroke-width:0.8;"/>
      </defs>
      <g>
       <use style="stroke:#000000;stroke-width:0.8;" x="64.978512" xlink:href="#m0ee3f5d2b4" y="162.432"/>
      </g>
     </g>
    </g>
    <g id="xtick_2">
     <g id="line2d_3">
      <path clip-path="url(#p751f3b4c7a)" d="M 115.516269 162.432 
L 115.516269 41.472 
" style="fill:none;stroke:#b0b0b0;stroke-linecap:square;stroke-width:0.8;"/>
     </g>
     <g id="line2d_4">
      <g>
       <use style="stroke:#000000;stroke-width:0.8;" x="115.516269" xlink:href="#m0ee3f5d2b4" y="162.432"/>
      </g>
     </g>
    </g>
    <g id="xtick_3">
     <g id="line2d_5">
      <path clip-path="url(#p751f3b4c7a)" d="M 166.054025 162.432 
L 166.054025 41.472 
" style="fill:none;stroke:#b0b0b0;stroke-linecap:square;stroke-width:0.8;"/>
     </g>
     <g id="line2d_6">
      <g>
       <use style="stroke:#000000;stroke-width:0.8;" x="166.054025" xlink:href="#m0ee3f5d2b4" y="162.432"/>
      </g>
     </g>
    </g>
    <g id="xtick_4">
     <g id="line2d_7">
      <path clip-path="url(#p751f3b4c7a)" d="M 216.591781 162.432 
L 216.591781 41.472 
" style="fill:none;stroke:#b0b0b0;stroke-linecap:square;stroke-width:0.8;"/>
     </g>
     <g id="line2d_8">
      <g>
       <use style="stroke:#000000;stroke-width:0.8;" x="216.591781" xlink:href="#m0ee3f5d2b4" y="162.432"/>
      </g>
     </g>
    </g>
    <g id="text_1">
     <!-- Time (s) -->
     <g transform="translate(118.43473 174.030437)scale(0.1 -0.1)">
      <defs>
       <path d="M -0.296875 72.90625 
L 61.375 72.90625 
L 61.375 64.59375 
L 35.5 64.59375 
L 35.5 0 
L 25.59375 0 
L 25.59375 64.59375 
L -0.296875 64.59375 
z
" id="DejaVuSans-84"/>
       <path d="M 9.421875 54.6875 
L 18.40625 54.6875 
L 18.40625 0 
L 9.421875 0 
z
M 9.421875 75.984375 
L 18.40625 75.984375 
L 18.40625 64.59375 
L 9.421875 64.59375 
z
" id="DejaVuSans-105"/>
       <path d="M 52 44.1875 
Q 55.375 50.25 60.0625 53.125 
Q 64.75 56 71.09375 56 
Q 79.640625 56 84.28125 50.015625 
Q 88.921875 44.046875 88.921875 33.015625 
L 88.921875 0 
L 79.890625 0 
L 79.890625 32.71875 
Q 79.890625 40.578125 77.09375 44.375 
Q 74.3125 48.1875 68.609375 48.1875 
Q 61.625 48.1875 57.5625 43.546875 
Q 53.515625 38.921875 53.515625 30.90625 
L 53.515625 0 
L 44.484375 0 
L 44.484375 32.71875 
Q 44.484375 40.625 41.703125 44.40625 
Q 38.921875 48.1875 33.109375 48.1875 
Q 26.21875 48.1875 22.15625 43.53125 
Q 18.109375 38.875 18.109375 30.90625 
L 18.109375 0 
L 9.078125 0 
L 9.078125 54.6875 
L 18.109375 54.6875 
L 18.109375 46.1875 
Q 21.1875 51.21875 25.484375 53.609375 
Q 29.78125 56 35.6875 56 
Q 41.65625 56 45.828125 52.96875 
Q 50 49.953125 52 44.1875 
z
" id="DejaVuSans-109"/>
       <path d="M 56.203125 29.59375 
L 56.203125 25.203125 
L 14.890625 25.203125 
Q 15.484375 15.921875 20.484375 11.0625 
Q 25.484375 6.203125 34.421875 6.203125 
Q 39.59375 6.203125 44.453125 7.46875 
Q 49.3125 8.734375 54.109375 11.28125 
L 54.109375 2.78125 
Q 49.265625 0.734375 44.1875 -0.34375 
Q 39.109375 -1.421875 33.890625 -1.421875 
Q 20.796875 -1.421875 13.15625 6.1875 
Q 5.515625 13.8125 5.515625 26.8125 
Q 5.515625 40.234375 12.765625 48.109375 
Q 20.015625 56 32.328125 56 
Q 43.359375 56 49.78125 48.890625 
Q 56.203125 41.796875 56.203125 29.59375 
z
M 47.21875 32.234375 
Q 47.125 39.59375 43.09375 43.984375 
Q 39.0625 48.390625 32.421875 48.390625 
Q 24.90625 48.390625 20.390625 44.140625 
Q 15.875 39.890625 15.1875 32.171875 
z
" id="DejaVuSans-101"/>
       <path id="DejaVuSans-32"/>
       <path d="M 31 75.875 
Q 24.46875 64.65625 21.28125 53.65625 
Q 18.109375 42.671875 18.109375 31.390625 
Q 18.109375 20.125 21.3125 9.0625 
Q 24.515625 -2 31 -13.1875 
L 23.1875 -13.1875 
Q 15.875 -1.703125 12.234375 9.375 
Q 8.59375 20.453125 8.59375 31.390625 
Q 8.59375 42.28125 12.203125 53.3125 
Q 15.828125 64.359375 23.1875 75.875 
z
" id="DejaVuSans-40"/>
       <path d="M 44.28125 53.078125 
L 44.28125 44.578125 
Q 40.484375 46.53125 36.375 47.5 
Q 32.28125 48.484375 27.875 48.484375 
Q 21.1875 48.484375 17.84375 46.4375 
Q 14.5 44.390625 14.5 40.28125 
Q 14.5 37.15625 16.890625 35.375 
Q 19.28125 33.59375 26.515625 31.984375 
L 29.59375 31.296875 
Q 39.15625 29.25 43.1875 25.515625 
Q 47.21875 21.78125 47.21875 15.09375 
Q 47.21875 7.46875 41.1875 3.015625 
Q 35.15625 -1.421875 24.609375 -1.421875 
Q 20.21875 -1.421875 15.453125 -0.5625 
Q 10.6875 0.296875 5.421875 2 
L 5.421875 11.28125 
Q 10.40625 8.6875 15.234375 7.390625 
Q 20.0625 6.109375 24.8125 6.109375 
Q 31.15625 6.109375 34.5625 8.28125 
Q 37.984375 10.453125 37.984375 14.40625 
Q 37.984375 18.0625 35.515625 20.015625 
Q 33.0625 21.96875 24.703125 23.78125 
L 21.578125 24.515625 
Q 13.234375 26.265625 9.515625 29.90625 
Q 5.8125 33.546875 5.8125 39.890625 
Q 5.8125 47.609375 11.28125 51.796875 
Q 16.75 56 26.8125 56 
Q 31.78125 56 36.171875 55.265625 
Q 40.578125 54.546875 44.28125 53.078125 
z
" id="DejaVuSans-115"/>
       <path d="M 8.015625 75.875 
L 15.828125 75.875 
Q 23.140625 64.359375 26.78125 53.3125 
Q 30.421875 42.28125 30.421875 31.390625 
Q 30.421875 20.453125 26.78125 9.375 
Q 23.140625 -1.703125 15.828125 -13.1875 
L 8.015625 -13.1875 
Q 14.5 -2 17.703125 9.0625 
Q 20.90625 20.125 20.90625 31.390625 
Q 20.90625 42.671875 17.703125 53.65625 
Q 14.5 64.65625 8.015625 75.875 
z
" id="DejaVuSans-41"/>
      </defs>
      <use xlink:href="#DejaVuSans-84"/>
      <use x="57.958984" xlink:href="#DejaVuSans-105"/>
      <use x="85.742188" xlink:href="#DejaVuSans-109"/>
      <use x="183.154297" xlink:href="#DejaVuSans-101"/>
      <use x="244.677734" xlink:href="#DejaVuSans-32"/>
      <use x="276.464844" xlink:href="#DejaVuSans-40"/>
      <use x="315.478516" xlink:href="#DejaVuSans-115"/>
      <use x="367.578125" xlink:href="#DejaVuSans-41"/>
     </g>
    </g>
   </g>
   <g id="matplotlib.axis_2">
    <g id="ytick_1">
     <g id="line2d_9">
      <path clip-path="url(#p751f3b4c7a)" d="M 57.6 156.933818 
L 219.927273 156.933818 
" style="fill:none;stroke:#b0b0b0;stroke-linecap:square;stroke-width:0.8;"/>
     </g>
     <g id="line2d_10">
      <defs>
       <path d="M 0 0 
L -3.5 0 
" id="m45ea1f558d" style="stroke:#000000;stroke-width:0.8;"/>
      </defs>
      <g>
       <use style="stroke:#000000;stroke-width:0.8;" x="57.6" xlink:href="#m45ea1f558d" y="156.933818"/>
      </g>
     </g>
     <g id="text_2">
      <!-- 0 -->
      <g transform="translate(44.2375 160.733037)scale(0.1 -0.1)">
       <defs>
        <path d="M 31.78125 66.40625 
Q 24.171875 66.40625 20.328125 58.90625 
Q 16.5 51.421875 16.5 36.375 
Q 16.5 21.390625 20.328125 13.890625 
Q 24.171875 6.390625 31.78125 6.390625 
Q 39.453125 6.390625 43.28125 13.890625 
Q 47.125 21.390625 47.125 36.375 
Q 47.125 51.421875 43.28125 58.90625 
Q 39.453125 66.40625 31.78125 66.40625 
z
M 31.78125 74.21875 
Q 44.046875 74.21875 50.515625 64.515625 
Q 56.984375 54.828125 56.984375 36.375 
Q 56.984375 17.96875 50.515625 8.265625 
Q 44.046875 -1.421875 31.78125 -1.421875 
Q 19.53125 -1.421875 13.0625 8.265625 
Q 6.59375 17.96875 6.59375 36.375 
Q 6.59375 54.828125 13.0625 64.515625 
Q 19.53125 74.21875 31.78125 74.21875 
z
" id="DejaVuSans-48"/>
       </defs>
       <use xlink:href="#DejaVuSans-48"/>
      </g>
     </g>
    </g>
    <g id="ytick_2">
     <g id="line2d_11">
      <path clip-path="url(#p751f3b4c7a)" d="M 57.6 130.752 
L 219.927273 130.752 
" style="fill:none;stroke:#b0b0b0;stroke-linecap:square;stroke-width:0.8;"/>
     </g>
     <g id="line2d_12">
      <g>
       <use style="stroke:#000000;stroke-width:0.8;" x="57.6" xlink:href="#m45ea1f558d" y="130.752"/>
      </g>
     </g>
     <g id="text_3">
      <!-- 5 -->
      <g transform="translate(44.2375 134.551219)scale(0.1 -0.1)">
       <defs>
        <path d="M 10.796875 72.90625 
L 49.515625 72.90625 
L 49.515625 64.59375 
L 19.828125 64.59375 
L 19.828125 46.734375 
Q 21.96875 47.46875 24.109375 47.828125 
Q 26.265625 48.1875 28.421875 48.1875 
Q 40.625 48.1875 47.75 41.5 
Q 54.890625 34.8125 54.890625 23.390625 
Q 54.890625 11.625 47.5625 5.09375 
Q 40.234375 -1.421875 26.90625 -1.421875 
Q 22.3125 -1.421875 17.546875 -0.640625 
Q 12.796875 0.140625 7.71875 1.703125 
L 7.71875 11.625 
Q 12.109375 9.234375 16.796875 8.0625 
Q 21.484375 6.890625 26.703125 6.890625 
Q 35.15625 6.890625 40.078125 11.328125 
Q 45.015625 15.765625 45.015625 23.390625 
Q 45.015625 31 40.078125 35.4375 
Q 35.15625 39.890625 26.703125 39.890625 
Q 22.75 39.890625 18.8125 39.015625 
Q 14.890625 38.140625 10.796875 36.28125 
z
" id="DejaVuSans-53"/>
       </defs>
       <use xlink:href="#DejaVuSans-53"/>
      </g>
     </g>
    </g>
    <g id="ytick_3">
     <g id="line2d_13">
      <path clip-path="url(#p751f3b4c7a)" d="M 57.6 104.570182 
L 219.927273 104.570182 
" style="fill:none;stroke:#b0b0b0;stroke-linecap:square;stroke-width:0.8;"/>
     </g>
     <g id="line2d_14">
      <g>
       <use style="stroke:#000000;stroke-width:0.8;" x="57.6" xlink:href="#m45ea1f558d" y="104.570182"/>
      </g>
     </g>
     <g id="text_4">
      <!-- 10 -->
      <g transform="translate(37.875 108.369401)scale(0.1 -0.1)">
       <defs>
        <path d="M 12.40625 8.296875 
L 28.515625 8.296875 
L 28.515625 63.921875 
L 10.984375 60.40625 
L 10.984375 69.390625 
L 28.421875 72.90625 
L 38.28125 72.90625 
L 38.28125 8.296875 
L 54.390625 8.296875 
L 54.390625 0 
L 12.40625 0 
z
" id="DejaVuSans-49"/>
       </defs>
       <use xlink:href="#DejaVuSans-49"/>
       <use x="63.623047" xlink:href="#DejaVuSans-48"/>
      </g>
     </g>
    </g>
    <g id="ytick_4">
     <g id="line2d_15">
      <path clip-path="url(#p751f3b4c7a)" d="M 57.6 78.388364 
L 219.927273 78.388364 
" style="fill:none;stroke:#b0b0b0;stroke-linecap:square;stroke-width:0.8;"/>
     </g>
     <g id="line2d_16">
      <g>
       <use style="stroke:#000000;stroke-width:0.8;" x="57.6" xlink:href="#m45ea1f558d" y="78.388364"/>
      </g>
     </g>
     <g id="text_5">
      <!-- 15 -->
      <g transform="translate(37.875 82.187582)scale(0.1 -0.1)">
       <use xlink:href="#DejaVuSans-49"/>
       <use x="63.623047" xlink:href="#DejaVuSans-53"/>
      </g>
     </g>
    </g>
    <g id="ytick_5">
     <g id="line2d_17">
      <path clip-path="url(#p751f3b4c7a)" d="M 57.6 52.206545 
L 219.927273 52.206545 
" style="fill:none;stroke:#b0b0b0;stroke-linecap:square;stroke-width:0.8;"/>
     </g>
     <g id="line2d_18">
      <g>
       <use style="stroke:#000000;stroke-width:0.8;" x="57.6" xlink:href="#m45ea1f558d" y="52.206545"/>
      </g>
     </g>
     <g id="text_6">
      <!-- 20 -->
      <g transform="translate(37.875 56.005764)scale(0.1 -0.1)">
       <defs>
        <path d="M 19.1875 8.296875 
L 53.609375 8.296875 
L 53.609375 0 
L 7.328125 0 
L 7.328125 8.296875 
Q 12.9375 14.109375 22.625 23.890625 
Q 32.328125 33.6875 34.8125 36.53125 
Q 39.546875 41.84375 41.421875 45.53125 
Q 43.3125 49.21875 43.3125 52.78125 
Q 43.3125 58.59375 39.234375 62.25 
Q 35.15625 65.921875 28.609375 65.921875 
Q 23.96875 65.921875 18.8125 64.3125 
Q 13.671875 62.703125 7.8125 59.421875 
L 7.8125 69.390625 
Q 13.765625 71.78125 18.9375 73 
Q 24.125 74.21875 28.421875 74.21875 
Q 39.75 74.21875 46.484375 68.546875 
Q 53.21875 62.890625 53.21875 53.421875 
Q 53.21875 48.921875 51.53125 44.890625 
Q 49.859375 40.875 45.40625 35.40625 
Q 44.1875 33.984375 37.640625 27.21875 
Q 31.109375 20.453125 19.1875 8.296875 
z
" id="DejaVuSans-50"/>
       </defs>
       <use xlink:href="#DejaVuSans-50"/>
       <use x="63.623047" xlink:href="#DejaVuSans-48"/>
      </g>
     </g>
    </g>
    <g id="text_7">
     <!-- Fuel Mass (kg) -->
     <g transform="translate(31.795312 137.923875)rotate(-90)scale(0.1 -0.1)">
      <defs>
       <path d="M 9.8125 72.90625 
L 51.703125 72.90625 
L 51.703125 64.59375 
L 19.671875 64.59375 
L 19.671875 43.109375 
L 48.578125 43.109375 
L 48.578125 34.8125 
L 19.671875 34.8125 
L 19.671875 0 
L 9.8125 0 
z
" id="DejaVuSans-70"/>
       <path d="M 8.5 21.578125 
L 8.5 54.6875 
L 17.484375 54.6875 
L 17.484375 21.921875 
Q 17.484375 14.15625 20.5 10.265625 
Q 23.53125 6.390625 29.59375 6.390625 
Q 36.859375 6.390625 41.078125 11.03125 
Q 45.3125 15.671875 45.3125 23.6875 
L 45.3125 54.6875 
L 54.296875 54.6875 
L 54.296875 0 
L 45.3125 0 
L 45.3125 8.40625 
Q 42.046875 3.421875 37.71875 1 
Q 33.40625 -1.421875 27.6875 -1.421875 
Q 18.265625 -1.421875 13.375 4.4375 
Q 8.5 10.296875 8.5 21.578125 
z
M 31.109375 56 
z
" id="DejaVuSans-117"/>
       <path d="M 9.421875 75.984375 
L 18.40625 75.984375 
L 18.40625 0 
L 9.421875 0 
z
" id="DejaVuSans-108"/>
       <path d="M 9.8125 72.90625 
L 24.515625 72.90625 
L 43.109375 23.296875 
L 61.8125 72.90625 
L 76.515625 72.90625 
L 76.515625 0 
L 66.890625 0 
L 66.890625 64.015625 
L 48.09375 14.015625 
L 38.1875 14.015625 
L 19.390625 64.015625 
L 19.390625 0 
L 9.8125 0 
z
" id="DejaVuSans-77"/>
       <path d="M 34.28125 27.484375 
Q 23.390625 27.484375 19.1875 25 
Q 14.984375 22.515625 14.984375 16.5 
Q 14.984375 11.71875 18.140625 8.90625 
Q 21.296875 6.109375 26.703125 6.109375 
Q 34.1875 6.109375 38.703125 11.40625 
Q 43.21875 16.703125 43.21875 25.484375 
L 43.21875 27.484375 
z
M 52.203125 31.203125 
L 52.203125 0 
L 43.21875 0 
L 43.21875 8.296875 
Q 40.140625 3.328125 35.546875 0.953125 
Q 30.953125 -1.421875 24.3125 -1.421875 
Q 15.921875 -1.421875 10.953125 3.296875 
Q 6 8.015625 6 15.921875 
Q 6 25.140625 12.171875 29.828125 
Q 18.359375 34.515625 30.609375 34.515625 
L 43.21875 34.515625 
L 43.21875 35.40625 
Q 43.21875 41.609375 39.140625 45 
Q 35.0625 48.390625 27.6875 48.390625 
Q 23 48.390625 18.546875 47.265625 
Q 14.109375 46.140625 10.015625 43.890625 
L 10.015625 52.203125 
Q 14.9375 54.109375 19.578125 55.046875 
Q 24.21875 56 28.609375 56 
Q 40.484375 56 46.34375 49.84375 
Q 52.203125 43.703125 52.203125 31.203125 
z
" id="DejaVuSans-97"/>
       <path d="M 9.078125 75.984375 
L 18.109375 75.984375 
L 18.109375 31.109375 
L 44.921875 54.6875 
L 56.390625 54.6875 
L 27.390625 29.109375 
L 57.625 0 
L 45.90625 0 
L 18.109375 26.703125 
L 18.109375 0 
L 9.078125 0 
z
" id="DejaVuSans-107"/>
       <path d="M 45.40625 27.984375 
Q 45.40625 37.75 41.375 43.109375 
Q 37.359375 48.484375 30.078125 48.484375 
Q 22.859375 48.484375 18.828125 43.109375 
Q 14.796875 37.75 14.796875 27.984375 
Q 14.796875 18.265625 18.828125 12.890625 
Q 22.859375 7.515625 30.078125 7.515625 
Q 37.359375 7.515625 41.375 12.890625 
Q 45.40625 18.265625 45.40625 27.984375 
z
M 54.390625 6.78125 
Q 54.390625 -7.171875 48.1875 -13.984375 
Q 42 -20.796875 29.203125 -20.796875 
Q 24.46875 -20.796875 20.265625 -20.09375 
Q 16.0625 -19.390625 12.109375 -17.921875 
L 12.109375 -9.1875 
Q 16.0625 -11.328125 19.921875 -12.34375 
Q 23.78125 -13.375 27.78125 -13.375 
Q 36.625 -13.375 41.015625 -8.765625 
Q 45.40625 -4.15625 45.40625 5.171875 
L 45.40625 9.625 
Q 42.625 4.78125 38.28125 2.390625 
Q 33.9375 0 27.875 0 
Q 17.828125 0 11.671875 7.65625 
Q 5.515625 15.328125 5.515625 27.984375 
Q 5.515625 40.671875 11.671875 48.328125 
Q 17.828125 56 27.875 56 
Q 33.9375 56 38.28125 53.609375 
Q 42.625 51.21875 45.40625 46.390625 
L 45.40625 54.6875 
L 54.390625 54.6875 
z
" id="DejaVuSans-103"/>
      </defs>
      <use xlink:href="#DejaVuSans-70"/>
      <use x="52.019531" xlink:href="#DejaVuSans-117"/>
      <use x="115.398438" xlink:href="#DejaVuSans-101"/>
      <use x="176.921875" xlink:href="#DejaVuSans-108"/>
      <use x="204.705078" xlink:href="#DejaVuSans-32"/>
      <use x="236.492188" xlink:href="#DejaVuSans-77"/>
      <use x="322.771484" xlink:href="#DejaVuSans-97"/>
      <use x="384.050781" xlink:href="#DejaVuSans-115"/>
      <use x="436.150391" xlink:href="#DejaVuSans-115"/>
      <use x="488.25" xlink:href="#DejaVuSans-32"/>
      <use x="520.037109" xlink:href="#DejaVuSans-40"/>
      <use x="559.050781" xlink:href="#DejaVuSans-107"/>
      <use x="616.960938" xlink:href="#DejaVuSans-103"/>
      <use x="680.4375" xlink:href="#DejaVuSans-41"/>
     </g>
    </g>
   </g>
   <g id="line2d_19">
    <path clip-path="url(#p751f3b4c7a)" d="M 64.978512 46.970182 
L 68.010778 47.153664 
L 71.043043 47.612369 
L 74.075309 48.346298 
L 77.107574 49.35545 
L 80.139839 50.639825 
L 83.172105 52.199424 
L 86.20437 54.034246 
L 89.236635 56.144291 
L 92.268901 58.529559 
L 95.301166 61.190051 
L 98.333431 64.125766 
L 101.365697 67.336704 
L 104.397962 70.822865 
L 107.430228 74.58425 
L 110.462493 78.620858 
L 114.505513 84.431127 
L 118.548534 90.730682 
L 122.591554 97.519523 
L 126.634575 104.797649 
L 130.677595 112.565062 
L 134.720616 120.82176 
L 138.763636 129.567744 
L 142.806657 138.803014 
L 146.849677 148.527569 
L 149.881943 156.14208 
L 150.892698 156.933818 
L 212.54876 156.933818 
L 212.54876 156.933818 
" style="fill:none;stroke:#1f77b4;stroke-linecap:square;stroke-width:1.5;"/>
   </g>
   <g id="patch_3">
    <path d="M 57.6 162.432 
L 57.6 41.472 
" style="fill:none;stroke:#000000;stroke-linecap:square;stroke-linejoin:miter;stroke-width:0.8;"/>
   </g>
   <g id="patch_4">
    <path d="M 219.927273 162.432 
L 219.927273 41.472 
" style="fill:none;stroke:#000000;stroke-linecap:square;stroke-linejoin:miter;stroke-width:0.8;"/>
   </g>
   <g id="patch_5">
    <path d="M 57.6 162.432 
L 219.927273 162.432 
" style="fill:none;stroke:#000000;stroke-linecap:square;stroke-linejoin:miter;stroke-width:0.8;"/>
   </g>
   <g id="patch_6">
    <path d="M 57.6 41.472 
L 219.927273 41.472 
" style="fill:none;stroke:#000000;stroke-linecap:square;stroke-linejoin:miter;stroke-width:0.8;"/>
   </g>
   <g id="text_8">
    <!-- Rocket Fuel Mass (kg) vs Time (s) -->
    <g transform="translate(38.634886 35.472)scale(0.12 -0.12)">
     <defs>
      <path d="M 44.390625 34.1875 
Q 47.5625 33.109375 50.5625 29.59375 
Q 53.5625 26.078125 56.59375 19.921875 
L 66.609375 0 
L 56 0 
L 46.6875 18.703125 
Q 43.0625 26.03125 39.671875 28.421875 
Q 36.28125 30.8125 30.421875 30.8125 
L 19.671875 30.8125 
L 19.671875 0 
L 9.8125 0 
L 9.8125 72.90625 
L 32.078125 72.90625 
Q 44.578125 72.90625 50.734375 67.671875 
Q 56.890625 62.453125 56.890625 51.90625 
Q 56.890625 45.015625 53.6875 40.46875 
Q 50.484375 35.9375 44.390625 34.1875 
z
M 19.671875 64.796875 
L 19.671875 38.921875 
L 32.078125 38.921875 
Q 39.203125 38.921875 42.84375 42.21875 
Q 46.484375 45.515625 46.484375 51.90625 
Q 46.484375 58.296875 42.84375 61.546875 
Q 39.203125 64.796875 32.078125 64.796875 
z
" id="DejaVuSans-82"/>
      <path d="M 30.609375 48.390625 
Q 23.390625 48.390625 19.1875 42.75 
Q 14.984375 37.109375 14.984375 27.296875 
Q 14.984375 17.484375 19.15625 11.84375 
Q 23.34375 6.203125 30.609375 6.203125 
Q 37.796875 6.203125 41.984375 11.859375 
Q 46.1875 17.53125 46.1875 27.296875 
Q 46.1875 37.015625 41.984375 42.703125 
Q 37.796875 48.390625 30.609375 48.390625 
z
M 30.609375 56 
Q 42.328125 56 49.015625 48.375 
Q 55.71875 40.765625 55.71875 27.296875 
Q 55.71875 13.875 49.015625 6.21875 
Q 42.328125 -1.421875 30.609375 -1.421875 
Q 18.84375 -1.421875 12.171875 6.21875 
Q 5.515625 13.875 5.515625 27.296875 
Q 5.515625 40.765625 12.171875 48.375 
Q 18.84375 56 30.609375 56 
z
" id="DejaVuSans-111"/>
      <path d="M 48.78125 52.59375 
L 48.78125 44.1875 
Q 44.96875 46.296875 41.140625 47.34375 
Q 37.3125 48.390625 33.40625 48.390625 
Q 24.65625 48.390625 19.8125 42.84375 
Q 14.984375 37.3125 14.984375 27.296875 
Q 14.984375 17.28125 19.8125 11.734375 
Q 24.65625 6.203125 33.40625 6.203125 
Q 37.3125 6.203125 41.140625 7.25 
Q 44.96875 8.296875 48.78125 10.40625 
L 48.78125 2.09375 
Q 45.015625 0.34375 40.984375 -0.53125 
Q 36.96875 -1.421875 32.421875 -1.421875 
Q 20.0625 -1.421875 12.78125 6.34375 
Q 5.515625 14.109375 5.515625 27.296875 
Q 5.515625 40.671875 12.859375 48.328125 
Q 20.21875 56 33.015625 56 
Q 37.15625 56 41.109375 55.140625 
Q 45.0625 54.296875 48.78125 52.59375 
z
" id="DejaVuSans-99"/>
      <path d="M 18.3125 70.21875 
L 18.3125 54.6875 
L 36.8125 54.6875 
L 36.8125 47.703125 
L 18.3125 47.703125 
L 18.3125 18.015625 
Q 18.3125 11.328125 20.140625 9.421875 
Q 21.96875 7.515625 27.59375 7.515625 
L 36.8125 7.515625 
L 36.8125 0 
L 27.59375 0 
Q 17.1875 0 13.234375 3.875 
Q 9.28125 7.765625 9.28125 18.015625 
L 9.28125 47.703125 
L 2.6875 47.703125 
L 2.6875 54.6875 
L 9.28125 54.6875 
L 9.28125 70.21875 
z
" id="DejaVuSans-116"/>
      <path d="M 2.984375 54.6875 
L 12.5 54.6875 
L 29.59375 8.796875 
L 46.6875 54.6875 
L 56.203125 54.6875 
L 35.6875 0 
L 23.484375 0 
z
" id="DejaVuSans-118"/>
     </defs>
     <use xlink:href="#DejaVuSans-82"/>
     <use x="64.982422" xlink:href="#DejaVuSans-111"/>
     <use x="126.164062" xlink:href="#DejaVuSans-99"/>
     <use x="181.144531" xlink:href="#DejaVuSans-107"/>
     <use x="235.429688" xlink:href="#DejaVuSans-101"/>
     <use x="296.953125" xlink:href="#DejaVuSans-116"/>
     <use x="336.162109" xlink:href="#DejaVuSans-32"/>
     <use x="367.949219" xlink:href="#DejaVuSans-70"/>
     <use x="419.96875" xlink:href="#DejaVuSans-117"/>
     <use x="483.347656" xlink:href="#DejaVuSans-101"/>
     <use x="544.871094" xlink:href="#DejaVuSans-108"/>
     <use x="572.654297" xlink:href="#DejaVuSans-32"/>
     <use x="604.441406" xlink:href="#DejaVuSans-77"/>
     <use x="690.720703" xlink:href="#DejaVuSans-97"/>
     <use x="752" xlink:href="#DejaVuSans-115"/>
     <use x="804.099609" xlink:href="#DejaVuSans-115"/>
     <use x="856.199219" xlink:href="#DejaVuSans-32"/>
     <use x="887.986328" xlink:href="#DejaVuSans-40"/>
     <use x="927" xlink:href="#DejaVuSans-107"/>
     <use x="984.910156" xlink:href="#DejaVuSans-103"/>
     <use x="1048.386719" xlink:href="#DejaVuSans-41"/>
     <use x="1087.400391" xlink:href="#DejaVuSans-32"/>
     <use x="1119.1875" xlink:href="#DejaVuSans-118"/>
     <use x="1178.367188" xlink:href="#DejaVuSans-115"/>
     <use x="1230.466797" xlink:href="#DejaVuSans-32"/>
     <use x="1262.253906" xlink:href="#DejaVuSans-84"/>
     <use x="1320.212891" xlink:href="#DejaVuSans-105"/>
     <use x="1347.996094" xlink:href="#DejaVuSans-109"/>
     <use x="1445.408203" xlink:href="#DejaVuSans-101"/>
     <use x="1506.931641" xlink:href="#DejaVuSans-32"/>
     <use x="1538.71875" xlink:href="#DejaVuSans-40"/>
     <use x="1577.732422" xlink:href="#DejaVuSans-115"/>
     <use x="1629.832031" xlink:href="#DejaVuSans-41"/>
    </g>
   </g>
   <g id="legend_1">
    <g id="patch_7">
     <path d="M 154.639773 64.150125 
L 212.927273 64.150125 
Q 214.927273 64.150125 214.927273 62.150125 
L 214.927273 48.472 
Q 214.927273 46.472 212.927273 46.472 
L 154.639773 46.472 
Q 152.639773 46.472 152.639773 48.472 
L 152.639773 62.150125 
Q 152.639773 64.150125 154.639773 64.150125 
z
" style="fill:#ffffff;opacity:0.8;stroke:#cccccc;stroke-linejoin:miter;"/>
    </g>
    <g id="line2d_20">
     <path d="M 156.639773 54.570437 
L 176.639773 54.570437 
" style="fill:none;stroke:#1f77b4;stroke-linecap:square;stroke-width:1.5;"/>
    </g>
    <g id="line2d_21"/>
    <g id="text_9">
     <!-- mass -->
     <g transform="translate(184.639773 58.070437)scale(0.1 -0.1)">
      <use xlink:href="#DejaVuSans-109"/>
      <use x="97.412109" xlink:href="#DejaVuSans-97"/>
      <use x="158.691406" xlink:href="#DejaVuSans-115"/>
      <use x="210.791016" xlink:href="#DejaVuSans-115"/>
     </g>
    </g>
   </g>
  </g>
  <g id="axes_2">
   <g id="patch_8">
    <path d="M 252.392727 162.432 
L 414.72 162.432 
L 414.72 41.472 
L 252.392727 41.472 
z
" style="fill:#ffffff;"/>
   </g>
   <g id="matplotlib.axis_3">
    <g id="xtick_5">
     <g id="line2d_22">
      <path clip-path="url(#pc69cfac422)" d="M 259.77124 162.432 
L 259.77124 41.472 
" style="fill:none;stroke:#b0b0b0;stroke-linecap:square;stroke-width:0.8;"/>
     </g>
     <g id="line2d_23">
      <g>
       <use style="stroke:#000000;stroke-width:0.8;" x="259.77124" xlink:href="#m0ee3f5d2b4" y="162.432"/>
      </g>
     </g>
    </g>
    <g id="xtick_6">
     <g id="line2d_24">
      <path clip-path="url(#pc69cfac422)" d="M 310.308996 162.432 
L 310.308996 41.472 
" style="fill:none;stroke:#b0b0b0;stroke-linecap:square;stroke-width:0.8;"/>
     </g>
     <g id="line2d_25">
      <g>
       <use style="stroke:#000000;stroke-width:0.8;" x="310.308996" xlink:href="#m0ee3f5d2b4" y="162.432"/>
      </g>
     </g>
    </g>
    <g id="xtick_7">
     <g id="line2d_26">
      <path clip-path="url(#pc69cfac422)" d="M 360.846752 162.432 
L 360.846752 41.472 
" style="fill:none;stroke:#b0b0b0;stroke-linecap:square;stroke-width:0.8;"/>
     </g>
     <g id="line2d_27">
      <g>
       <use style="stroke:#000000;stroke-width:0.8;" x="360.846752" xlink:href="#m0ee3f5d2b4" y="162.432"/>
      </g>
     </g>
    </g>
    <g id="xtick_8">
     <g id="line2d_28">
      <path clip-path="url(#pc69cfac422)" d="M 411.384508 162.432 
L 411.384508 41.472 
" style="fill:none;stroke:#b0b0b0;stroke-linecap:square;stroke-width:0.8;"/>
     </g>
     <g id="line2d_29">
      <g>
       <use style="stroke:#000000;stroke-width:0.8;" x="411.384508" xlink:href="#m0ee3f5d2b4" y="162.432"/>
      </g>
     </g>
    </g>
    <g id="text_10">
     <!-- Time (s) -->
     <g transform="translate(313.227457 174.030437)scale(0.1 -0.1)">
      <use xlink:href="#DejaVuSans-84"/>
      <use x="57.958984" xlink:href="#DejaVuSans-105"/>
      <use x="85.742188" xlink:href="#DejaVuSans-109"/>
      <use x="183.154297" xlink:href="#DejaVuSans-101"/>
      <use x="244.677734" xlink:href="#DejaVuSans-32"/>
      <use x="276.464844" xlink:href="#DejaVuSans-40"/>
      <use x="315.478516" xlink:href="#DejaVuSans-115"/>
      <use x="367.578125" xlink:href="#DejaVuSans-41"/>
     </g>
    </g>
   </g>
   <g id="matplotlib.axis_4">
    <g id="ytick_6">
     <g id="line2d_30">
      <path clip-path="url(#pc69cfac422)" d="M 252.392727 155.758793 
L 414.72 155.758793 
" style="fill:none;stroke:#b0b0b0;stroke-linecap:square;stroke-width:0.8;"/>
     </g>
     <g id="line2d_31">
      <g>
       <use style="stroke:#000000;stroke-width:0.8;" x="252.392727" xlink:href="#m45ea1f558d" y="155.758793"/>
      </g>
     </g>
     <g id="text_11">
      <!-- 0 -->
      <g transform="translate(239.030227 159.558012)scale(0.1 -0.1)">
       <use xlink:href="#DejaVuSans-48"/>
      </g>
     </g>
    </g>
    <g id="ytick_7">
     <g id="line2d_32">
      <path clip-path="url(#pc69cfac422)" d="M 252.392727 135.280053 
L 414.72 135.280053 
" style="fill:none;stroke:#b0b0b0;stroke-linecap:square;stroke-width:0.8;"/>
     </g>
     <g id="line2d_33">
      <g>
       <use style="stroke:#000000;stroke-width:0.8;" x="252.392727" xlink:href="#m45ea1f558d" y="135.280053"/>
      </g>
     </g>
     <g id="text_12">
      <!-- 20000 -->
      <g transform="translate(213.580227 139.079272)scale(0.1 -0.1)">
       <use xlink:href="#DejaVuSans-50"/>
       <use x="63.623047" xlink:href="#DejaVuSans-48"/>
       <use x="127.246094" xlink:href="#DejaVuSans-48"/>
       <use x="190.869141" xlink:href="#DejaVuSans-48"/>
       <use x="254.492188" xlink:href="#DejaVuSans-48"/>
      </g>
     </g>
    </g>
    <g id="ytick_8">
     <g id="line2d_34">
      <path clip-path="url(#pc69cfac422)" d="M 252.392727 114.801314 
L 414.72 114.801314 
" style="fill:none;stroke:#b0b0b0;stroke-linecap:square;stroke-width:0.8;"/>
     </g>
     <g id="line2d_35">
      <g>
       <use style="stroke:#000000;stroke-width:0.8;" x="252.392727" xlink:href="#m45ea1f558d" y="114.801314"/>
      </g>
     </g>
     <g id="text_13">
      <!-- 40000 -->
      <g transform="translate(213.580227 118.600532)scale(0.1 -0.1)">
       <defs>
        <path d="M 37.796875 64.3125 
L 12.890625 25.390625 
L 37.796875 25.390625 
z
M 35.203125 72.90625 
L 47.609375 72.90625 
L 47.609375 25.390625 
L 58.015625 25.390625 
L 58.015625 17.1875 
L 47.609375 17.1875 
L 47.609375 0 
L 37.796875 0 
L 37.796875 17.1875 
L 4.890625 17.1875 
L 4.890625 26.703125 
z
" id="DejaVuSans-52"/>
       </defs>
       <use xlink:href="#DejaVuSans-52"/>
       <use x="63.623047" xlink:href="#DejaVuSans-48"/>
       <use x="127.246094" xlink:href="#DejaVuSans-48"/>
       <use x="190.869141" xlink:href="#DejaVuSans-48"/>
       <use x="254.492188" xlink:href="#DejaVuSans-48"/>
      </g>
     </g>
    </g>
    <g id="ytick_9">
     <g id="line2d_36">
      <path clip-path="url(#pc69cfac422)" d="M 252.392727 94.322574 
L 414.72 94.322574 
" style="fill:none;stroke:#b0b0b0;stroke-linecap:square;stroke-width:0.8;"/>
     </g>
     <g id="line2d_37">
      <g>
       <use style="stroke:#000000;stroke-width:0.8;" x="252.392727" xlink:href="#m45ea1f558d" y="94.322574"/>
      </g>
     </g>
     <g id="text_14">
      <!-- 60000 -->
      <g transform="translate(213.580227 98.121793)scale(0.1 -0.1)">
       <defs>
        <path d="M 33.015625 40.375 
Q 26.375 40.375 22.484375 35.828125 
Q 18.609375 31.296875 18.609375 23.390625 
Q 18.609375 15.53125 22.484375 10.953125 
Q 26.375 6.390625 33.015625 6.390625 
Q 39.65625 6.390625 43.53125 10.953125 
Q 47.40625 15.53125 47.40625 23.390625 
Q 47.40625 31.296875 43.53125 35.828125 
Q 39.65625 40.375 33.015625 40.375 
z
M 52.59375 71.296875 
L 52.59375 62.3125 
Q 48.875 64.0625 45.09375 64.984375 
Q 41.3125 65.921875 37.59375 65.921875 
Q 27.828125 65.921875 22.671875 59.328125 
Q 17.53125 52.734375 16.796875 39.40625 
Q 19.671875 43.65625 24.015625 45.921875 
Q 28.375 48.1875 33.59375 48.1875 
Q 44.578125 48.1875 50.953125 41.515625 
Q 57.328125 34.859375 57.328125 23.390625 
Q 57.328125 12.15625 50.6875 5.359375 
Q 44.046875 -1.421875 33.015625 -1.421875 
Q 20.359375 -1.421875 13.671875 8.265625 
Q 6.984375 17.96875 6.984375 36.375 
Q 6.984375 53.65625 15.1875 63.9375 
Q 23.390625 74.21875 37.203125 74.21875 
Q 40.921875 74.21875 44.703125 73.484375 
Q 48.484375 72.75 52.59375 71.296875 
z
" id="DejaVuSans-54"/>
       </defs>
       <use xlink:href="#DejaVuSans-54"/>
       <use x="63.623047" xlink:href="#DejaVuSans-48"/>
       <use x="127.246094" xlink:href="#DejaVuSans-48"/>
       <use x="190.869141" xlink:href="#DejaVuSans-48"/>
       <use x="254.492188" xlink:href="#DejaVuSans-48"/>
      </g>
     </g>
    </g>
    <g id="ytick_10">
     <g id="line2d_38">
      <path clip-path="url(#pc69cfac422)" d="M 252.392727 73.843834 
L 414.72 73.843834 
" style="fill:none;stroke:#b0b0b0;stroke-linecap:square;stroke-width:0.8;"/>
     </g>
     <g id="line2d_39">
      <g>
       <use style="stroke:#000000;stroke-width:0.8;" x="252.392727" xlink:href="#m45ea1f558d" y="73.843834"/>
      </g>
     </g>
     <g id="text_15">
      <!-- 80000 -->
      <g transform="translate(213.580227 77.643053)scale(0.1 -0.1)">
       <defs>
        <path d="M 31.78125 34.625 
Q 24.75 34.625 20.71875 30.859375 
Q 16.703125 27.09375 16.703125 20.515625 
Q 16.703125 13.921875 20.71875 10.15625 
Q 24.75 6.390625 31.78125 6.390625 
Q 38.8125 6.390625 42.859375 10.171875 
Q 46.921875 13.96875 46.921875 20.515625 
Q 46.921875 27.09375 42.890625 30.859375 
Q 38.875 34.625 31.78125 34.625 
z
M 21.921875 38.8125 
Q 15.578125 40.375 12.03125 44.71875 
Q 8.5 49.078125 8.5 55.328125 
Q 8.5 64.0625 14.71875 69.140625 
Q 20.953125 74.21875 31.78125 74.21875 
Q 42.671875 74.21875 48.875 69.140625 
Q 55.078125 64.0625 55.078125 55.328125 
Q 55.078125 49.078125 51.53125 44.71875 
Q 48 40.375 41.703125 38.8125 
Q 48.828125 37.15625 52.796875 32.3125 
Q 56.78125 27.484375 56.78125 20.515625 
Q 56.78125 9.90625 50.3125 4.234375 
Q 43.84375 -1.421875 31.78125 -1.421875 
Q 19.734375 -1.421875 13.25 4.234375 
Q 6.78125 9.90625 6.78125 20.515625 
Q 6.78125 27.484375 10.78125 32.3125 
Q 14.796875 37.15625 21.921875 38.8125 
z
M 18.3125 54.390625 
Q 18.3125 48.734375 21.84375 45.5625 
Q 25.390625 42.390625 31.78125 42.390625 
Q 38.140625 42.390625 41.71875 45.5625 
Q 45.3125 48.734375 45.3125 54.390625 
Q 45.3125 60.0625 41.71875 63.234375 
Q 38.140625 66.40625 31.78125 66.40625 
Q 25.390625 66.40625 21.84375 63.234375 
Q 18.3125 60.0625 18.3125 54.390625 
z
" id="DejaVuSans-56"/>
       </defs>
       <use xlink:href="#DejaVuSans-56"/>
       <use x="63.623047" xlink:href="#DejaVuSans-48"/>
       <use x="127.246094" xlink:href="#DejaVuSans-48"/>
       <use x="190.869141" xlink:href="#DejaVuSans-48"/>
       <use x="254.492188" xlink:href="#DejaVuSans-48"/>
      </g>
     </g>
    </g>
    <g id="ytick_11">
     <g id="line2d_40">
      <path clip-path="url(#pc69cfac422)" d="M 252.392727 53.365095 
L 414.72 53.365095 
" style="fill:none;stroke:#b0b0b0;stroke-linecap:square;stroke-width:0.8;"/>
     </g>
     <g id="line2d_41">
      <g>
       <use style="stroke:#000000;stroke-width:0.8;" x="252.392727" xlink:href="#m45ea1f558d" y="53.365095"/>
      </g>
     </g>
     <g id="text_16">
      <!-- 100000 -->
      <g transform="translate(207.217727 57.164313)scale(0.1 -0.1)">
       <use xlink:href="#DejaVuSans-49"/>
       <use x="63.623047" xlink:href="#DejaVuSans-48"/>
       <use x="127.246094" xlink:href="#DejaVuSans-48"/>
       <use x="190.869141" xlink:href="#DejaVuSans-48"/>
       <use x="254.492188" xlink:href="#DejaVuSans-48"/>
       <use x="318.115234" xlink:href="#DejaVuSans-48"/>
      </g>
     </g>
    </g>
    <g id="text_17">
     <!-- Height (m) -->
     <g transform="translate(201.13804 128.841844)rotate(-90)scale(0.1 -0.1)">
      <defs>
       <path d="M 9.8125 72.90625 
L 19.671875 72.90625 
L 19.671875 43.015625 
L 55.515625 43.015625 
L 55.515625 72.90625 
L 65.375 72.90625 
L 65.375 0 
L 55.515625 0 
L 55.515625 34.71875 
L 19.671875 34.71875 
L 19.671875 0 
L 9.8125 0 
z
" id="DejaVuSans-72"/>
       <path d="M 54.890625 33.015625 
L 54.890625 0 
L 45.90625 0 
L 45.90625 32.71875 
Q 45.90625 40.484375 42.875 44.328125 
Q 39.84375 48.1875 33.796875 48.1875 
Q 26.515625 48.1875 22.3125 43.546875 
Q 18.109375 38.921875 18.109375 30.90625 
L 18.109375 0 
L 9.078125 0 
L 9.078125 75.984375 
L 18.109375 75.984375 
L 18.109375 46.1875 
Q 21.34375 51.125 25.703125 53.5625 
Q 30.078125 56 35.796875 56 
Q 45.21875 56 50.046875 50.171875 
Q 54.890625 44.34375 54.890625 33.015625 
z
" id="DejaVuSans-104"/>
      </defs>
      <use xlink:href="#DejaVuSans-72"/>
      <use x="75.195312" xlink:href="#DejaVuSans-101"/>
      <use x="136.71875" xlink:href="#DejaVuSans-105"/>
      <use x="164.501953" xlink:href="#DejaVuSans-103"/>
      <use x="227.978516" xlink:href="#DejaVuSans-104"/>
      <use x="291.357422" xlink:href="#DejaVuSans-116"/>
      <use x="330.566406" xlink:href="#DejaVuSans-32"/>
      <use x="362.353516" xlink:href="#DejaVuSans-40"/>
      <use x="401.367188" xlink:href="#DejaVuSans-109"/>
      <use x="498.779297" xlink:href="#DejaVuSans-41"/>
     </g>
    </g>
   </g>
   <g id="line2d_42">
    <path clip-path="url(#pc69cfac422)" d="M 259.77124 155.758793 
L 270.889546 155.648641 
L 276.954077 155.363225 
L 282.007852 154.900407 
L 286.050873 154.327616 
L 290.093893 153.524302 
L 293.126159 152.737539 
L 296.158424 151.762772 
L 299.190689 150.568409 
L 302.222955 149.117656 
L 305.25522 147.367322 
L 308.287486 145.266299 
L 310.308996 143.641159 
L 312.330506 141.81232 
L 314.352016 139.755951 
L 316.373527 137.444893 
L 318.395037 134.848075 
L 320.416547 131.929801 
L 322.438057 128.648897 
L 324.459568 124.957675 
L 326.481078 120.800682 
L 328.502588 116.113193 
L 330.524098 110.819406 
L 332.545609 104.830301 
L 334.567119 98.041159 
L 336.588629 90.32875 
L 338.610139 81.548322 
L 340.631649 71.530623 
L 342.65316 60.079417 
L 344.67467 46.970182 
L 345.685425 52.102852 
L 346.69618 55.3681 
L 347.706935 57.142112 
L 348.71769 58.210946 
L 354.782221 63.687934 
L 358.825242 67.7583 
L 362.868262 72.220198 
L 366.911283 77.099892 
L 370.954303 82.425761 
L 374.997324 88.228692 
L 379.040344 94.542564 
L 383.083365 101.404876 
L 386.11563 106.93655 
L 389.147895 112.819858 
L 392.180161 119.076534 
L 395.212426 125.730817 
L 398.244691 132.810008 
L 401.276957 140.345222 
L 404.309222 148.372413 
L 407.341488 156.933818 
L 407.341488 156.933818 
" style="fill:none;stroke:#1f77b4;stroke-linecap:square;stroke-width:1.5;"/>
   </g>
   <g id="patch_9">
    <path d="M 252.392727 162.432 
L 252.392727 41.472 
" style="fill:none;stroke:#000000;stroke-linecap:square;stroke-linejoin:miter;stroke-width:0.8;"/>
   </g>
   <g id="patch_10">
    <path d="M 414.72 162.432 
L 414.72 41.472 
" style="fill:none;stroke:#000000;stroke-linecap:square;stroke-linejoin:miter;stroke-width:0.8;"/>
   </g>
   <g id="patch_11">
    <path d="M 252.392727 162.432 
L 414.72 162.432 
" style="fill:none;stroke:#000000;stroke-linecap:square;stroke-linejoin:miter;stroke-width:0.8;"/>
   </g>
   <g id="patch_12">
    <path d="M 252.392727 41.472 
L 414.72 41.472 
" style="fill:none;stroke:#000000;stroke-linecap:square;stroke-linejoin:miter;stroke-width:0.8;"/>
   </g>
   <g id="text_18">
    <!-- Height (m) vs Time (s) -->
    <g transform="translate(266.403239 35.472)scale(0.12 -0.12)">
     <use xlink:href="#DejaVuSans-72"/>
     <use x="75.195312" xlink:href="#DejaVuSans-101"/>
     <use x="136.71875" xlink:href="#DejaVuSans-105"/>
     <use x="164.501953" xlink:href="#DejaVuSans-103"/>
     <use x="227.978516" xlink:href="#DejaVuSans-104"/>
     <use x="291.357422" xlink:href="#DejaVuSans-116"/>
     <use x="330.566406" xlink:href="#DejaVuSans-32"/>
     <use x="362.353516" xlink:href="#DejaVuSans-40"/>
     <use x="401.367188" xlink:href="#DejaVuSans-109"/>
     <use x="498.779297" xlink:href="#DejaVuSans-41"/>
     <use x="537.792969" xlink:href="#DejaVuSans-32"/>
     <use x="569.580078" xlink:href="#DejaVuSans-118"/>
     <use x="628.759766" xlink:href="#DejaVuSans-115"/>
     <use x="680.859375" xlink:href="#DejaVuSans-32"/>
     <use x="712.646484" xlink:href="#DejaVuSans-84"/>
     <use x="770.605469" xlink:href="#DejaVuSans-105"/>
     <use x="798.388672" xlink:href="#DejaVuSans-109"/>
     <use x="895.800781" xlink:href="#DejaVuSans-101"/>
     <use x="957.324219" xlink:href="#DejaVuSans-32"/>
     <use x="989.111328" xlink:href="#DejaVuSans-40"/>
     <use x="1028.125" xlink:href="#DejaVuSans-115"/>
     <use x="1080.224609" xlink:href="#DejaVuSans-41"/>
    </g>
   </g>
   <g id="legend_2">
    <g id="patch_13">
     <path d="M 259.392727 64.150125 
L 324.45054 64.150125 
Q 326.45054 64.150125 326.45054 62.150125 
L 326.45054 48.472 
Q 326.45054 46.472 324.45054 46.472 
L 259.392727 46.472 
Q 257.392727 46.472 257.392727 48.472 
L 257.392727 62.150125 
Q 257.392727 64.150125 259.392727 64.150125 
z
" style="fill:#ffffff;opacity:0.8;stroke:#cccccc;stroke-linejoin:miter;"/>
    </g>
    <g id="line2d_43">
     <path d="M 261.392727 54.570437 
L 281.392727 54.570437 
" style="fill:none;stroke:#1f77b4;stroke-linecap:square;stroke-width:1.5;"/>
    </g>
    <g id="line2d_44"/>
    <g id="text_19">
     <!-- Height -->
     <g transform="translate(289.392727 58.070437)scale(0.1 -0.1)">
      <use xlink:href="#DejaVuSans-72"/>
      <use x="75.195312" xlink:href="#DejaVuSans-101"/>
      <use x="136.71875" xlink:href="#DejaVuSans-105"/>
      <use x="164.501953" xlink:href="#DejaVuSans-103"/>
      <use x="227.978516" xlink:href="#DejaVuSans-104"/>
      <use x="291.357422" xlink:href="#DejaVuSans-116"/>
     </g>
    </g>
   </g>
  </g>
  <g id="axes_3">
   <g id="patch_14">
    <path d="M 57.6 307.584 
L 219.927273 307.584 
L 219.927273 186.624 
L 57.6 186.624 
z
" style="fill:#ffffff;"/>
   </g>
   <g id="matplotlib.axis_5">
    <g id="xtick_9">
     <g id="line2d_45">
      <path clip-path="url(#p04c12ee8c8)" d="M 64.978512 307.584 
L 64.978512 186.624 
" style="fill:none;stroke:#b0b0b0;stroke-linecap:square;stroke-width:0.8;"/>
     </g>
     <g id="line2d_46">
      <g>
       <use style="stroke:#000000;stroke-width:0.8;" x="64.978512" xlink:href="#m0ee3f5d2b4" y="307.584"/>
      </g>
     </g>
     <g id="text_20">
      <!-- 0 -->
      <g transform="translate(61.797262 322.182437)scale(0.1 -0.1)">
       <use xlink:href="#DejaVuSans-48"/>
      </g>
     </g>
    </g>
    <g id="xtick_10">
     <g id="line2d_47">
      <path clip-path="url(#p04c12ee8c8)" d="M 115.516269 307.584 
L 115.516269 186.624 
" style="fill:none;stroke:#b0b0b0;stroke-linecap:square;stroke-width:0.8;"/>
     </g>
     <g id="line2d_48">
      <g>
       <use style="stroke:#000000;stroke-width:0.8;" x="115.516269" xlink:href="#m0ee3f5d2b4" y="307.584"/>
      </g>
     </g>
     <g id="text_21">
      <!-- 5 -->
      <g transform="translate(112.335019 322.182437)scale(0.1 -0.1)">
       <use xlink:href="#DejaVuSans-53"/>
      </g>
     </g>
    </g>
    <g id="xtick_11">
     <g id="line2d_49">
      <path clip-path="url(#p04c12ee8c8)" d="M 166.054025 307.584 
L 166.054025 186.624 
" style="fill:none;stroke:#b0b0b0;stroke-linecap:square;stroke-width:0.8;"/>
     </g>
     <g id="line2d_50">
      <g>
       <use style="stroke:#000000;stroke-width:0.8;" x="166.054025" xlink:href="#m0ee3f5d2b4" y="307.584"/>
      </g>
     </g>
     <g id="text_22">
      <!-- 10 -->
      <g transform="translate(159.691525 322.182437)scale(0.1 -0.1)">
       <use xlink:href="#DejaVuSans-49"/>
       <use x="63.623047" xlink:href="#DejaVuSans-48"/>
      </g>
     </g>
    </g>
    <g id="xtick_12">
     <g id="line2d_51">
      <path clip-path="url(#p04c12ee8c8)" d="M 216.591781 307.584 
L 216.591781 186.624 
" style="fill:none;stroke:#b0b0b0;stroke-linecap:square;stroke-width:0.8;"/>
     </g>
     <g id="line2d_52">
      <g>
       <use style="stroke:#000000;stroke-width:0.8;" x="216.591781" xlink:href="#m0ee3f5d2b4" y="307.584"/>
      </g>
     </g>
     <g id="text_23">
      <!-- 15 -->
      <g transform="translate(210.229281 322.182437)scale(0.1 -0.1)">
       <use xlink:href="#DejaVuSans-49"/>
       <use x="63.623047" xlink:href="#DejaVuSans-53"/>
      </g>
     </g>
    </g>
    <g id="text_24">
     <!-- Time $(s)$ -->
     <g transform="translate(118.263636 335.860562)scale(0.1 -0.1)">
      <defs>
       <path d="M 50 53.078125 
L 48.296875 44.578125 
Q 44.734375 46.53125 40.765625 47.5 
Q 36.8125 48.484375 32.625 48.484375 
Q 25.53125 48.484375 21.453125 46.0625 
Q 17.390625 43.65625 17.390625 39.5 
Q 17.390625 34.671875 26.859375 32.078125 
Q 27.59375 31.890625 27.9375 31.78125 
L 30.8125 30.90625 
Q 39.796875 28.421875 42.796875 25.6875 
Q 45.796875 22.953125 45.796875 18.21875 
Q 45.796875 9.515625 38.890625 4.046875 
Q 31.984375 -1.421875 20.796875 -1.421875 
Q 16.453125 -1.421875 11.671875 -0.578125 
Q 6.890625 0.25 1.125 2 
L 2.875 11.28125 
Q 7.8125 8.734375 12.59375 7.421875 
Q 17.390625 6.109375 21.78125 6.109375 
Q 28.375 6.109375 32.5 8.9375 
Q 36.625 11.765625 36.625 16.109375 
Q 36.625 20.796875 25.78125 23.6875 
L 24.859375 23.921875 
L 21.78125 24.703125 
Q 14.9375 26.515625 11.765625 29.46875 
Q 8.59375 32.421875 8.59375 37.015625 
Q 8.59375 45.75 15.15625 50.875 
Q 21.734375 56 33.015625 56 
Q 37.453125 56 41.671875 55.265625 
Q 45.90625 54.546875 50 53.078125 
z
" id="DejaVuSans-Oblique-115"/>
      </defs>
      <use transform="translate(0 0.015625)" xlink:href="#DejaVuSans-84"/>
      <use transform="translate(61.083984 0.015625)" xlink:href="#DejaVuSans-105"/>
      <use transform="translate(88.867188 0.015625)" xlink:href="#DejaVuSans-109"/>
      <use transform="translate(186.279297 0.015625)" xlink:href="#DejaVuSans-101"/>
      <use transform="translate(247.802734 0.015625)" xlink:href="#DejaVuSans-32"/>
      <use transform="translate(279.589844 0.015625)" xlink:href="#DejaVuSans-40"/>
      <use transform="translate(318.603516 0.015625)" xlink:href="#DejaVuSans-Oblique-115"/>
      <use transform="translate(370.703125 0.015625)" xlink:href="#DejaVuSans-41"/>
     </g>
    </g>
   </g>
   <g id="matplotlib.axis_6">
    <g id="ytick_12">
     <g id="line2d_53">
      <path clip-path="url(#p04c12ee8c8)" d="M 57.6 294.92383 
L 219.927273 294.92383 
" style="fill:none;stroke:#b0b0b0;stroke-linecap:square;stroke-width:0.8;"/>
     </g>
     <g id="line2d_54">
      <g>
       <use style="stroke:#000000;stroke-width:0.8;" x="57.6" xlink:href="#m45ea1f558d" y="294.92383"/>
      </g>
     </g>
     <g id="text_25">
      <!-- −500 -->
      <g transform="translate(23.132812 298.723049)scale(0.1 -0.1)">
       <defs>
        <path d="M 10.59375 35.5 
L 73.1875 35.5 
L 73.1875 27.203125 
L 10.59375 27.203125 
z
" id="DejaVuSans-8722"/>
       </defs>
       <use xlink:href="#DejaVuSans-8722"/>
       <use x="83.789062" xlink:href="#DejaVuSans-53"/>
       <use x="147.412109" xlink:href="#DejaVuSans-48"/>
       <use x="211.035156" xlink:href="#DejaVuSans-48"/>
      </g>
     </g>
    </g>
    <g id="ytick_13">
     <g id="line2d_55">
      <path clip-path="url(#p04c12ee8c8)" d="M 57.6 255.014064 
L 219.927273 255.014064 
" style="fill:none;stroke:#b0b0b0;stroke-linecap:square;stroke-width:0.8;"/>
     </g>
     <g id="line2d_56">
      <g>
       <use style="stroke:#000000;stroke-width:0.8;" x="57.6" xlink:href="#m45ea1f558d" y="255.014064"/>
      </g>
     </g>
     <g id="text_26">
      <!-- 0 -->
      <g transform="translate(44.2375 258.813283)scale(0.1 -0.1)">
       <use xlink:href="#DejaVuSans-48"/>
      </g>
     </g>
    </g>
    <g id="ytick_14">
     <g id="line2d_57">
      <path clip-path="url(#p04c12ee8c8)" d="M 57.6 215.104298 
L 219.927273 215.104298 
" style="fill:none;stroke:#b0b0b0;stroke-linecap:square;stroke-width:0.8;"/>
     </g>
     <g id="line2d_58">
      <g>
       <use style="stroke:#000000;stroke-width:0.8;" x="57.6" xlink:href="#m45ea1f558d" y="215.104298"/>
      </g>
     </g>
     <g id="text_27">
      <!-- 500 -->
      <g transform="translate(31.5125 218.903517)scale(0.1 -0.1)">
       <use xlink:href="#DejaVuSans-53"/>
       <use x="63.623047" xlink:href="#DejaVuSans-48"/>
       <use x="127.246094" xlink:href="#DejaVuSans-48"/>
      </g>
     </g>
    </g>
    <g id="text_28">
     <!-- Velocity $(m/s)$ -->
     <g transform="translate(17.032812 281.804)rotate(-90)scale(0.1 -0.1)">
      <defs>
       <path d="M 28.609375 0 
L 0.78125 72.90625 
L 11.078125 72.90625 
L 34.1875 11.53125 
L 57.328125 72.90625 
L 67.578125 72.90625 
L 39.796875 0 
z
" id="DejaVuSans-86"/>
       <path d="M 32.171875 -5.078125 
Q 28.375 -14.84375 24.75 -17.8125 
Q 21.140625 -20.796875 15.09375 -20.796875 
L 7.90625 -20.796875 
L 7.90625 -13.28125 
L 13.1875 -13.28125 
Q 16.890625 -13.28125 18.9375 -11.515625 
Q 21 -9.765625 23.484375 -3.21875 
L 25.09375 0.875 
L 2.984375 54.6875 
L 12.5 54.6875 
L 29.59375 11.921875 
L 46.6875 54.6875 
L 56.203125 54.6875 
z
" id="DejaVuSans-121"/>
       <path d="M 89.796875 33.015625 
L 83.40625 0 
L 74.421875 0 
L 80.71875 32.71875 
Q 81.109375 34.8125 81.296875 36.328125 
Q 81.5 37.84375 81.5 38.921875 
Q 81.5 43.3125 79.046875 45.75 
Q 76.609375 48.1875 72.21875 48.1875 
Q 65.671875 48.1875 60.546875 43.28125 
Q 55.421875 38.375 53.90625 30.515625 
L 47.90625 0 
L 38.921875 0 
L 45.3125 32.71875 
Q 45.703125 34.515625 45.890625 36.046875 
Q 46.09375 37.59375 46.09375 38.8125 
Q 46.09375 43.265625 43.65625 45.71875 
Q 41.21875 48.1875 36.921875 48.1875 
Q 30.28125 48.1875 25.140625 43.28125 
Q 20.015625 38.375 18.5 30.515625 
L 12.5 0 
L 3.515625 0 
L 14.203125 54.6875 
L 23.1875 54.6875 
L 21.484375 46.1875 
Q 25.140625 50.984375 30.046875 53.484375 
Q 34.96875 56 40.578125 56 
Q 46.53125 56 50.359375 52.875 
Q 54.203125 49.75 54.984375 44.1875 
Q 59.078125 49.953125 64.46875 52.96875 
Q 69.875 56 75.875 56 
Q 82.90625 56 86.734375 51.953125 
Q 90.578125 47.90625 90.578125 40.484375 
Q 90.578125 38.875 90.375 36.9375 
Q 90.1875 35.015625 89.796875 33.015625 
z
" id="DejaVuSans-Oblique-109"/>
       <path d="M 25.390625 72.90625 
L 33.6875 72.90625 
L 8.296875 -9.28125 
L 0 -9.28125 
z
" id="DejaVuSans-47"/>
      </defs>
      <use transform="translate(0 0.015625)" xlink:href="#DejaVuSans-86"/>
      <use transform="translate(68.408203 0.015625)" xlink:href="#DejaVuSans-101"/>
      <use transform="translate(129.931641 0.015625)" xlink:href="#DejaVuSans-108"/>
      <use transform="translate(157.714844 0.015625)" xlink:href="#DejaVuSans-111"/>
      <use transform="translate(218.896484 0.015625)" xlink:href="#DejaVuSans-99"/>
      <use transform="translate(273.876953 0.015625)" xlink:href="#DejaVuSans-105"/>
      <use transform="translate(301.660156 0.015625)" xlink:href="#DejaVuSans-116"/>
      <use transform="translate(340.869141 0.015625)" xlink:href="#DejaVuSans-121"/>
      <use transform="translate(400.048828 0.015625)" xlink:href="#DejaVuSans-32"/>
      <use transform="translate(431.835938 0.015625)" xlink:href="#DejaVuSans-40"/>
      <use transform="translate(470.849609 0.015625)" xlink:href="#DejaVuSans-Oblique-109"/>
      <use transform="translate(568.261719 0.015625)" xlink:href="#DejaVuSans-47"/>
      <use transform="translate(601.953125 0.015625)" xlink:href="#DejaVuSans-Oblique-115"/>
      <use transform="translate(654.052734 0.015625)" xlink:href="#DejaVuSans-41"/>
     </g>
    </g>
   </g>
   <g id="line2d_59">
    <path clip-path="url(#p04c12ee8c8)" d="M 64.978512 255.014064 
L 80.139839 252.404641 
L 88.22588 250.801782 
L 95.301166 249.159536 
L 100.354942 247.785907 
L 105.408717 246.183714 
L 109.451738 244.688472 
L 113.494758 242.950063 
L 116.527024 241.448014 
L 119.559289 239.73749 
L 122.591554 237.774352 
L 125.62382 235.502902 
L 128.656085 232.852317 
L 130.677595 230.830871 
L 132.699106 228.568286 
L 134.720616 226.025734 
L 136.742126 223.157496 
L 138.763636 219.910049 
L 140.785147 216.221366 
L 142.806657 212.020746 
L 144.828167 207.229701 
L 146.849677 201.764583 
L 148.871188 195.541805 
L 149.881943 192.122182 
L 150.892698 302.085818 
L 151.903453 284.611469 
L 152.914208 270.909532 
L 153.924963 264.482179 
L 154.935718 262.842041 
L 155.946473 262.623191 
L 158.978739 262.866274 
L 174.140066 264.518754 
L 186.269127 266.04117 
L 196.376678 267.518177 
L 204.462719 268.906769 
L 211.538005 270.353072 
L 212.54876 270.583855 
L 212.54876 270.583855 
" style="fill:none;stroke:#1f77b4;stroke-linecap:square;stroke-width:1.5;"/>
   </g>
   <g id="patch_15">
    <path d="M 57.6 307.584 
L 57.6 186.624 
" style="fill:none;stroke:#000000;stroke-linecap:square;stroke-linejoin:miter;stroke-width:0.8;"/>
   </g>
   <g id="patch_16">
    <path d="M 219.927273 307.584 
L 219.927273 186.624 
" style="fill:none;stroke:#000000;stroke-linecap:square;stroke-linejoin:miter;stroke-width:0.8;"/>
   </g>
   <g id="patch_17">
    <path d="M 57.6 307.584 
L 219.927273 307.584 
" style="fill:none;stroke:#000000;stroke-linecap:square;stroke-linejoin:miter;stroke-width:0.8;"/>
   </g>
   <g id="patch_18">
    <path d="M 57.6 186.624 
L 219.927273 186.624 
" style="fill:none;stroke:#000000;stroke-linecap:square;stroke-linejoin:miter;stroke-width:0.8;"/>
   </g>
   <g id="text_29">
    <!-- Velocity $(m/s)$ vs Time $(s)$ -->
    <g transform="translate(62.083636 180.624)scale(0.12 -0.12)">
     <use transform="translate(0 0.015625)" xlink:href="#DejaVuSans-86"/>
     <use transform="translate(68.408203 0.015625)" xlink:href="#DejaVuSans-101"/>
     <use transform="translate(129.931641 0.015625)" xlink:href="#DejaVuSans-108"/>
     <use transform="translate(157.714844 0.015625)" xlink:href="#DejaVuSans-111"/>
     <use transform="translate(218.896484 0.015625)" xlink:href="#DejaVuSans-99"/>
     <use transform="translate(273.876953 0.015625)" xlink:href="#DejaVuSans-105"/>
     <use transform="translate(301.660156 0.015625)" xlink:href="#DejaVuSans-116"/>
     <use transform="translate(340.869141 0.015625)" xlink:href="#DejaVuSans-121"/>
     <use transform="translate(400.048828 0.015625)" xlink:href="#DejaVuSans-32"/>
     <use transform="translate(431.835938 0.015625)" xlink:href="#DejaVuSans-40"/>
     <use transform="translate(470.849609 0.015625)" xlink:href="#DejaVuSans-Oblique-109"/>
     <use transform="translate(568.261719 0.015625)" xlink:href="#DejaVuSans-47"/>
     <use transform="translate(601.953125 0.015625)" xlink:href="#DejaVuSans-Oblique-115"/>
     <use transform="translate(654.052734 0.015625)" xlink:href="#DejaVuSans-41"/>
     <use transform="translate(693.066406 0.015625)" xlink:href="#DejaVuSans-32"/>
     <use transform="translate(724.853516 0.015625)" xlink:href="#DejaVuSans-118"/>
     <use transform="translate(784.033203 0.015625)" xlink:href="#DejaVuSans-115"/>
     <use transform="translate(836.132812 0.015625)" xlink:href="#DejaVuSans-32"/>
     <use transform="translate(867.919922 0.015625)" xlink:href="#DejaVuSans-84"/>
     <use transform="translate(929.003906 0.015625)" xlink:href="#DejaVuSans-105"/>
     <use transform="translate(956.787109 0.015625)" xlink:href="#DejaVuSans-109"/>
     <use transform="translate(1054.199219 0.015625)" xlink:href="#DejaVuSans-101"/>
     <use transform="translate(1115.722656 0.015625)" xlink:href="#DejaVuSans-32"/>
     <use transform="translate(1147.509766 0.015625)" xlink:href="#DejaVuSans-40"/>
     <use transform="translate(1186.523438 0.015625)" xlink:href="#DejaVuSans-Oblique-115"/>
     <use transform="translate(1238.623047 0.015625)" xlink:href="#DejaVuSans-41"/>
    </g>
   </g>
   <g id="legend_3">
    <g id="patch_19">
     <path d="M 64.6 209.302125 
L 135.83125 209.302125 
Q 137.83125 209.302125 137.83125 207.302125 
L 137.83125 193.624 
Q 137.83125 191.624 135.83125 191.624 
L 64.6 191.624 
Q 62.6 191.624 62.6 193.624 
L 62.6 207.302125 
Q 62.6 209.302125 64.6 209.302125 
z
" style="fill:#ffffff;opacity:0.8;stroke:#cccccc;stroke-linejoin:miter;"/>
    </g>
    <g id="line2d_60">
     <path d="M 66.6 199.722437 
L 86.6 199.722437 
" style="fill:none;stroke:#1f77b4;stroke-linecap:square;stroke-width:1.5;"/>
    </g>
    <g id="line2d_61"/>
    <g id="text_30">
     <!-- Velocity -->
     <g transform="translate(94.6 203.222437)scale(0.1 -0.1)">
      <use xlink:href="#DejaVuSans-86"/>
      <use x="60.658203" xlink:href="#DejaVuSans-101"/>
      <use x="122.181641" xlink:href="#DejaVuSans-108"/>
      <use x="149.964844" xlink:href="#DejaVuSans-111"/>
      <use x="211.146484" xlink:href="#DejaVuSans-99"/>
      <use x="266.126953" xlink:href="#DejaVuSans-105"/>
      <use x="293.910156" xlink:href="#DejaVuSans-116"/>
      <use x="333.119141" xlink:href="#DejaVuSans-121"/>
     </g>
    </g>
   </g>
  </g>
  <g id="axes_4">
   <g id="patch_20">
    <path d="M 252.392727 307.584 
L 414.72 307.584 
L 414.72 186.624 
L 252.392727 186.624 
z
" style="fill:#ffffff;"/>
   </g>
   <g id="matplotlib.axis_7">
    <g id="xtick_13">
     <g id="line2d_62">
      <path clip-path="url(#p340026c00d)" d="M 259.77124 307.584 
L 259.77124 186.624 
" style="fill:none;stroke:#b0b0b0;stroke-linecap:square;stroke-width:0.8;"/>
     </g>
     <g id="line2d_63">
      <g>
       <use style="stroke:#000000;stroke-width:0.8;" x="259.77124" xlink:href="#m0ee3f5d2b4" y="307.584"/>
      </g>
     </g>
     <g id="text_31">
      <!-- 0 -->
      <g transform="translate(256.58999 322.182437)scale(0.1 -0.1)">
       <use xlink:href="#DejaVuSans-48"/>
      </g>
     </g>
    </g>
    <g id="xtick_14">
     <g id="line2d_64">
      <path clip-path="url(#p340026c00d)" d="M 310.308996 307.584 
L 310.308996 186.624 
" style="fill:none;stroke:#b0b0b0;stroke-linecap:square;stroke-width:0.8;"/>
     </g>
     <g id="line2d_65">
      <g>
       <use style="stroke:#000000;stroke-width:0.8;" x="310.308996" xlink:href="#m0ee3f5d2b4" y="307.584"/>
      </g>
     </g>
     <g id="text_32">
      <!-- 5 -->
      <g transform="translate(307.127746 322.182437)scale(0.1 -0.1)">
       <use xlink:href="#DejaVuSans-53"/>
      </g>
     </g>
    </g>
    <g id="xtick_15">
     <g id="line2d_66">
      <path clip-path="url(#p340026c00d)" d="M 360.846752 307.584 
L 360.846752 186.624 
" style="fill:none;stroke:#b0b0b0;stroke-linecap:square;stroke-width:0.8;"/>
     </g>
     <g id="line2d_67">
      <g>
       <use style="stroke:#000000;stroke-width:0.8;" x="360.846752" xlink:href="#m0ee3f5d2b4" y="307.584"/>
      </g>
     </g>
     <g id="text_33">
      <!-- 10 -->
      <g transform="translate(354.484252 322.182437)scale(0.1 -0.1)">
       <use xlink:href="#DejaVuSans-49"/>
       <use x="63.623047" xlink:href="#DejaVuSans-48"/>
      </g>
     </g>
    </g>
    <g id="xtick_16">
     <g id="line2d_68">
      <path clip-path="url(#p340026c00d)" d="M 411.384508 307.584 
L 411.384508 186.624 
" style="fill:none;stroke:#b0b0b0;stroke-linecap:square;stroke-width:0.8;"/>
     </g>
     <g id="line2d_69">
      <g>
       <use style="stroke:#000000;stroke-width:0.8;" x="411.384508" xlink:href="#m0ee3f5d2b4" y="307.584"/>
      </g>
     </g>
     <g id="text_34">
      <!-- 15 -->
      <g transform="translate(405.022008 322.182437)scale(0.1 -0.1)">
       <use xlink:href="#DejaVuSans-49"/>
       <use x="63.623047" xlink:href="#DejaVuSans-53"/>
      </g>
     </g>
    </g>
    <g id="text_35">
     <!-- Time $(s)$ -->
     <g transform="translate(313.056364 335.860562)scale(0.1 -0.1)">
      <use transform="translate(0 0.015625)" xlink:href="#DejaVuSans-84"/>
      <use transform="translate(61.083984 0.015625)" xlink:href="#DejaVuSans-105"/>
      <use transform="translate(88.867188 0.015625)" xlink:href="#DejaVuSans-109"/>
      <use transform="translate(186.279297 0.015625)" xlink:href="#DejaVuSans-101"/>
      <use transform="translate(247.802734 0.015625)" xlink:href="#DejaVuSans-32"/>
      <use transform="translate(279.589844 0.015625)" xlink:href="#DejaVuSans-40"/>
      <use transform="translate(318.603516 0.015625)" xlink:href="#DejaVuSans-Oblique-115"/>
      <use transform="translate(370.703125 0.015625)" xlink:href="#DejaVuSans-41"/>
     </g>
    </g>
   </g>
   <g id="matplotlib.axis_8">
    <g id="ytick_15">
     <g id="line2d_70">
      <path clip-path="url(#p340026c00d)" d="M 252.392727 289.026284 
L 414.72 289.026284 
" style="fill:none;stroke:#b0b0b0;stroke-linecap:square;stroke-width:0.8;"/>
     </g>
     <g id="line2d_71">
      <g>
       <use style="stroke:#000000;stroke-width:0.8;" x="252.392727" xlink:href="#m45ea1f558d" y="289.026284"/>
      </g>
     </g>
     <g id="text_36">
      <!-- −50 -->
      <g transform="translate(224.28804 292.825503)scale(0.1 -0.1)">
       <use xlink:href="#DejaVuSans-8722"/>
       <use x="83.789062" xlink:href="#DejaVuSans-53"/>
       <use x="147.412109" xlink:href="#DejaVuSans-48"/>
      </g>
     </g>
    </g>
    <g id="ytick_16">
     <g id="line2d_72">
      <path clip-path="url(#p340026c00d)" d="M 252.392727 255.332396 
L 414.72 255.332396 
" style="fill:none;stroke:#b0b0b0;stroke-linecap:square;stroke-width:0.8;"/>
     </g>
     <g id="line2d_73">
      <g>
       <use style="stroke:#000000;stroke-width:0.8;" x="252.392727" xlink:href="#m45ea1f558d" y="255.332396"/>
      </g>
     </g>
     <g id="text_37">
      <!-- 0 -->
      <g transform="translate(239.030227 259.131614)scale(0.1 -0.1)">
       <use xlink:href="#DejaVuSans-48"/>
      </g>
     </g>
    </g>
    <g id="ytick_17">
     <g id="line2d_74">
      <path clip-path="url(#p340026c00d)" d="M 252.392727 221.638507 
L 414.72 221.638507 
" style="fill:none;stroke:#b0b0b0;stroke-linecap:square;stroke-width:0.8;"/>
     </g>
     <g id="line2d_75">
      <g>
       <use style="stroke:#000000;stroke-width:0.8;" x="252.392727" xlink:href="#m45ea1f558d" y="221.638507"/>
      </g>
     </g>
     <g id="text_38">
      <!-- 50 -->
      <g transform="translate(232.667727 225.437726)scale(0.1 -0.1)">
       <use xlink:href="#DejaVuSans-53"/>
       <use x="63.623047" xlink:href="#DejaVuSans-48"/>
      </g>
     </g>
    </g>
    <g id="ytick_18">
     <g id="line2d_76">
      <path clip-path="url(#p340026c00d)" d="M 252.392727 187.944619 
L 414.72 187.944619 
" style="fill:none;stroke:#b0b0b0;stroke-linecap:square;stroke-width:0.8;"/>
     </g>
     <g id="line2d_77">
      <g>
       <use style="stroke:#000000;stroke-width:0.8;" x="252.392727" xlink:href="#m45ea1f558d" y="187.944619"/>
      </g>
     </g>
     <g id="text_39">
      <!-- 100 -->
      <g transform="translate(226.305227 191.743838)scale(0.1 -0.1)">
       <use xlink:href="#DejaVuSans-49"/>
       <use x="63.623047" xlink:href="#DejaVuSans-48"/>
       <use x="127.246094" xlink:href="#DejaVuSans-48"/>
      </g>
     </g>
    </g>
    <g id="text_40">
     <!-- Acceleration $(m/s^2)$ -->
     <g transform="translate(218.208352 295.554)rotate(-90)scale(0.1 -0.1)">
      <defs>
       <path d="M 34.1875 63.1875 
L 20.796875 26.90625 
L 47.609375 26.90625 
z
M 28.609375 72.90625 
L 39.796875 72.90625 
L 67.578125 0 
L 57.328125 0 
L 50.6875 18.703125 
L 17.828125 18.703125 
L 11.1875 0 
L 0.78125 0 
z
" id="DejaVuSans-65"/>
       <path d="M 41.109375 46.296875 
Q 39.59375 47.171875 37.8125 47.578125 
Q 36.03125 48 33.890625 48 
Q 26.265625 48 22.1875 43.046875 
Q 18.109375 38.09375 18.109375 28.8125 
L 18.109375 0 
L 9.078125 0 
L 9.078125 54.6875 
L 18.109375 54.6875 
L 18.109375 46.1875 
Q 20.953125 51.171875 25.484375 53.578125 
Q 30.03125 56 36.53125 56 
Q 37.453125 56 38.578125 55.875 
Q 39.703125 55.765625 41.0625 55.515625 
z
" id="DejaVuSans-114"/>
       <path d="M 54.890625 33.015625 
L 54.890625 0 
L 45.90625 0 
L 45.90625 32.71875 
Q 45.90625 40.484375 42.875 44.328125 
Q 39.84375 48.1875 33.796875 48.1875 
Q 26.515625 48.1875 22.3125 43.546875 
Q 18.109375 38.921875 18.109375 30.90625 
L 18.109375 0 
L 9.078125 0 
L 9.078125 54.6875 
L 18.109375 54.6875 
L 18.109375 46.1875 
Q 21.34375 51.125 25.703125 53.5625 
Q 30.078125 56 35.796875 56 
Q 45.21875 56 50.046875 50.171875 
Q 54.890625 44.34375 54.890625 33.015625 
z
" id="DejaVuSans-110"/>
      </defs>
      <use transform="translate(0 0.765625)" xlink:href="#DejaVuSans-65"/>
      <use transform="translate(68.408203 0.765625)" xlink:href="#DejaVuSans-99"/>
      <use transform="translate(123.388672 0.765625)" xlink:href="#DejaVuSans-99"/>
      <use transform="translate(178.369141 0.765625)" xlink:href="#DejaVuSans-101"/>
      <use transform="translate(239.892578 0.765625)" xlink:href="#DejaVuSans-108"/>
      <use transform="translate(267.675781 0.765625)" xlink:href="#DejaVuSans-101"/>
      <use transform="translate(329.199219 0.765625)" xlink:href="#DejaVuSans-114"/>
      <use transform="translate(370.3125 0.765625)" xlink:href="#DejaVuSans-97"/>
      <use transform="translate(431.591797 0.765625)" xlink:href="#DejaVuSans-116"/>
      <use transform="translate(470.800781 0.765625)" xlink:href="#DejaVuSans-105"/>
      <use transform="translate(498.583984 0.765625)" xlink:href="#DejaVuSans-111"/>
      <use transform="translate(559.765625 0.765625)" xlink:href="#DejaVuSans-110"/>
      <use transform="translate(623.144531 0.765625)" xlink:href="#DejaVuSans-32"/>
      <use transform="translate(654.931641 0.765625)" xlink:href="#DejaVuSans-40"/>
      <use transform="translate(693.945312 0.765625)" xlink:href="#DejaVuSans-Oblique-109"/>
      <use transform="translate(791.357422 0.765625)" xlink:href="#DejaVuSans-47"/>
      <use transform="translate(825.048828 0.765625)" xlink:href="#DejaVuSans-Oblique-115"/>
      <use transform="translate(881.798333 39.046875)scale(0.7)" xlink:href="#DejaVuSans-50"/>
      <use transform="translate(929.068841 0.765625)" xlink:href="#DejaVuSans-41"/>
     </g>
    </g>
   </g>
   <g id="line2d_78">
    <path clip-path="url(#p340026c00d)" d="M 259.77124 241.208436 
L 266.846526 241.079197 
L 273.921811 240.717481 
L 279.986342 240.204913 
L 286.050873 239.47853 
L 291.104648 238.681995 
L 296.158424 237.677557 
L 301.2122 236.420502 
L 305.25522 235.192033 
L 309.298241 233.7198 
L 312.330506 232.422187 
L 315.362771 230.925228 
L 318.395037 229.190493 
L 321.427302 227.169614 
L 324.459568 224.801468 
L 326.481078 222.992354 
L 328.502588 220.967163 
L 330.524098 218.693576 
L 332.545609 216.134236 
L 334.567119 213.246467 
L 336.588629 209.982445 
L 338.610139 206.290156 
L 340.631649 202.115669 
L 342.65316 197.40731 
L 344.67467 192.122182 
L 345.685425 302.085818 
L 346.69618 284.387814 
L 347.706935 270.757425 
L 348.71769 264.415886 
L 349.728446 262.757995 
L 350.739201 262.470194 
L 353.771466 262.460612 
L 376.008079 262.942103 
L 392.180161 263.495129 
L 404.309222 264.127725 
L 407.341488 264.335699 
L 407.341488 264.335699 
" style="fill:none;stroke:#1f77b4;stroke-linecap:square;stroke-width:1.5;"/>
   </g>
   <g id="patch_21">
    <path d="M 252.392727 307.584 
L 252.392727 186.624 
" style="fill:none;stroke:#000000;stroke-linecap:square;stroke-linejoin:miter;stroke-width:0.8;"/>
   </g>
   <g id="patch_22">
    <path d="M 414.72 307.584 
L 414.72 186.624 
" style="fill:none;stroke:#000000;stroke-linecap:square;stroke-linejoin:miter;stroke-width:0.8;"/>
   </g>
   <g id="patch_23">
    <path d="M 252.392727 307.584 
L 414.72 307.584 
" style="fill:none;stroke:#000000;stroke-linecap:square;stroke-linejoin:miter;stroke-width:0.8;"/>
   </g>
   <g id="patch_24">
    <path d="M 252.392727 186.624 
L 414.72 186.624 
" style="fill:none;stroke:#000000;stroke-linecap:square;stroke-linejoin:miter;stroke-width:0.8;"/>
   </g>
   <g id="text_41">
    <!-- Acceleration $(m/s^2)$ vs Time $(s)$ -->
    <g transform="translate(240.376364 180.624)scale(0.12 -0.12)">
     <use transform="translate(0 0.765625)" xlink:href="#DejaVuSans-65"/>
     <use transform="translate(68.408203 0.765625)" xlink:href="#DejaVuSans-99"/>
     <use transform="translate(123.388672 0.765625)" xlink:href="#DejaVuSans-99"/>
     <use transform="translate(178.369141 0.765625)" xlink:href="#DejaVuSans-101"/>
     <use transform="translate(239.892578 0.765625)" xlink:href="#DejaVuSans-108"/>
     <use transform="translate(267.675781 0.765625)" xlink:href="#DejaVuSans-101"/>
     <use transform="translate(329.199219 0.765625)" xlink:href="#DejaVuSans-114"/>
     <use transform="translate(370.3125 0.765625)" xlink:href="#DejaVuSans-97"/>
     <use transform="translate(431.591797 0.765625)" xlink:href="#DejaVuSans-116"/>
     <use transform="translate(470.800781 0.765625)" xlink:href="#DejaVuSans-105"/>
     <use transform="translate(498.583984 0.765625)" xlink:href="#DejaVuSans-111"/>
     <use transform="translate(559.765625 0.765625)" xlink:href="#DejaVuSans-110"/>
     <use transform="translate(623.144531 0.765625)" xlink:href="#DejaVuSans-32"/>
     <use transform="translate(654.931641 0.765625)" xlink:href="#DejaVuSans-40"/>
     <use transform="translate(693.945312 0.765625)" xlink:href="#DejaVuSans-Oblique-109"/>
     <use transform="translate(791.357422 0.765625)" xlink:href="#DejaVuSans-47"/>
     <use transform="translate(825.048828 0.765625)" xlink:href="#DejaVuSans-Oblique-115"/>
     <use transform="translate(881.798333 39.046875)scale(0.7)" xlink:href="#DejaVuSans-50"/>
     <use transform="translate(929.068841 0.765625)" xlink:href="#DejaVuSans-41"/>
     <use transform="translate(968.082513 0.765625)" xlink:href="#DejaVuSans-32"/>
     <use transform="translate(999.869622 0.765625)" xlink:href="#DejaVuSans-118"/>
     <use transform="translate(1059.04931 0.765625)" xlink:href="#DejaVuSans-115"/>
     <use transform="translate(1111.148919 0.765625)" xlink:href="#DejaVuSans-32"/>
     <use transform="translate(1142.936029 0.765625)" xlink:href="#DejaVuSans-84"/>
     <use transform="translate(1204.020013 0.765625)" xlink:href="#DejaVuSans-105"/>
     <use transform="translate(1231.803216 0.765625)" xlink:href="#DejaVuSans-109"/>
     <use transform="translate(1329.215326 0.765625)" xlink:href="#DejaVuSans-101"/>
     <use transform="translate(1390.738763 0.765625)" xlink:href="#DejaVuSans-32"/>
     <use transform="translate(1422.525872 0.765625)" xlink:href="#DejaVuSans-40"/>
     <use transform="translate(1461.539544 0.765625)" xlink:href="#DejaVuSans-Oblique-115"/>
     <use transform="translate(1513.639154 0.765625)" xlink:href="#DejaVuSans-41"/>
    </g>
   </g>
   <g id="legend_4">
    <g id="patch_25">
     <path d="M 313.579375 255.943062 
L 407.72 255.943062 
Q 409.72 255.943062 409.72 253.943062 
L 409.72 240.264937 
Q 409.72 238.264937 407.72 238.264937 
L 313.579375 238.264937 
Q 311.579375 238.264937 311.579375 240.264937 
L 311.579375 253.943062 
Q 311.579375 255.943062 313.579375 255.943062 
z
" style="fill:#ffffff;opacity:0.8;stroke:#cccccc;stroke-linejoin:miter;"/>
    </g>
    <g id="line2d_79">
     <path d="M 315.579375 246.363375 
L 335.579375 246.363375 
" style="fill:none;stroke:#1f77b4;stroke-linecap:square;stroke-width:1.5;"/>
    </g>
    <g id="line2d_80"/>
    <g id="text_42">
     <!-- Acceleration -->
     <g transform="translate(343.579375 249.863375)scale(0.1 -0.1)">
      <use xlink:href="#DejaVuSans-65"/>
      <use x="66.658203" xlink:href="#DejaVuSans-99"/>
      <use x="121.638672" xlink:href="#DejaVuSans-99"/>
      <use x="176.619141" xlink:href="#DejaVuSans-101"/>
      <use x="238.142578" xlink:href="#DejaVuSans-108"/>
      <use x="265.925781" xlink:href="#DejaVuSans-101"/>
      <use x="327.449219" xlink:href="#DejaVuSans-114"/>
      <use x="368.5625" xlink:href="#DejaVuSans-97"/>
      <use x="429.841797" xlink:href="#DejaVuSans-116"/>
      <use x="469.050781" xlink:href="#DejaVuSans-105"/>
      <use x="496.833984" xlink:href="#DejaVuSans-111"/>
      <use x="558.015625" xlink:href="#DejaVuSans-110"/>
     </g>
    </g>
   </g>
  </g>
  <g id="text_43">
   <!-- Single-Stage Rocket Simulation Telemetry Data -->
   <g transform="translate(88.765313 16.030125)scale(0.12 -0.12)">
    <defs>
     <path d="M 53.515625 70.515625 
L 53.515625 60.890625 
Q 47.90625 63.578125 42.921875 64.890625 
Q 37.9375 66.21875 33.296875 66.21875 
Q 25.25 66.21875 20.875 63.09375 
Q 16.5 59.96875 16.5 54.203125 
Q 16.5 49.359375 19.40625 46.890625 
Q 22.3125 44.4375 30.421875 42.921875 
L 36.375 41.703125 
Q 47.40625 39.59375 52.65625 34.296875 
Q 57.90625 29 57.90625 20.125 
Q 57.90625 9.515625 50.796875 4.046875 
Q 43.703125 -1.421875 29.984375 -1.421875 
Q 24.8125 -1.421875 18.96875 -0.25 
Q 13.140625 0.921875 6.890625 3.21875 
L 6.890625 13.375 
Q 12.890625 10.015625 18.65625 8.296875 
Q 24.421875 6.59375 29.984375 6.59375 
Q 38.421875 6.59375 43.015625 9.90625 
Q 47.609375 13.234375 47.609375 19.390625 
Q 47.609375 24.75 44.3125 27.78125 
Q 41.015625 30.8125 33.5 32.328125 
L 27.484375 33.5 
Q 16.453125 35.6875 11.515625 40.375 
Q 6.59375 45.0625 6.59375 53.421875 
Q 6.59375 63.09375 13.40625 68.65625 
Q 20.21875 74.21875 32.171875 74.21875 
Q 37.3125 74.21875 42.625 73.28125 
Q 47.953125 72.359375 53.515625 70.515625 
z
" id="DejaVuSans-83"/>
     <path d="M 4.890625 31.390625 
L 31.203125 31.390625 
L 31.203125 23.390625 
L 4.890625 23.390625 
z
" id="DejaVuSans-45"/>
     <path d="M 19.671875 64.796875 
L 19.671875 8.109375 
L 31.59375 8.109375 
Q 46.6875 8.109375 53.6875 14.9375 
Q 60.6875 21.78125 60.6875 36.53125 
Q 60.6875 51.171875 53.6875 57.984375 
Q 46.6875 64.796875 31.59375 64.796875 
z
M 9.8125 72.90625 
L 30.078125 72.90625 
Q 51.265625 72.90625 61.171875 64.09375 
Q 71.09375 55.28125 71.09375 36.53125 
Q 71.09375 17.671875 61.125 8.828125 
Q 51.171875 0 30.078125 0 
L 9.8125 0 
z
" id="DejaVuSans-68"/>
    </defs>
    <use xlink:href="#DejaVuSans-83"/>
    <use x="63.476562" xlink:href="#DejaVuSans-105"/>
    <use x="91.259766" xlink:href="#DejaVuSans-110"/>
    <use x="154.638672" xlink:href="#DejaVuSans-103"/>
    <use x="218.115234" xlink:href="#DejaVuSans-108"/>
    <use x="245.898438" xlink:href="#DejaVuSans-101"/>
    <use x="307.421875" xlink:href="#DejaVuSans-45"/>
    <use x="343.505859" xlink:href="#DejaVuSans-83"/>
    <use x="406.982422" xlink:href="#DejaVuSans-116"/>
    <use x="446.191406" xlink:href="#DejaVuSans-97"/>
    <use x="507.470703" xlink:href="#DejaVuSans-103"/>
    <use x="570.947266" xlink:href="#DejaVuSans-101"/>
    <use x="632.470703" xlink:href="#DejaVuSans-32"/>
    <use x="664.257812" xlink:href="#DejaVuSans-82"/>
    <use x="729.240234" xlink:href="#DejaVuSans-111"/>
    <use x="790.421875" xlink:href="#DejaVuSans-99"/>
    <use x="845.402344" xlink:href="#DejaVuSans-107"/>
    <use x="899.6875" xlink:href="#DejaVuSans-101"/>
    <use x="961.210938" xlink:href="#DejaVuSans-116"/>
    <use x="1000.419922" xlink:href="#DejaVuSans-32"/>
    <use x="1032.207031" xlink:href="#DejaVuSans-83"/>
    <use x="1095.683594" xlink:href="#DejaVuSans-105"/>
    <use x="1123.466797" xlink:href="#DejaVuSans-109"/>
    <use x="1220.878906" xlink:href="#DejaVuSans-117"/>
    <use x="1284.257812" xlink:href="#DejaVuSans-108"/>
    <use x="1312.041016" xlink:href="#DejaVuSans-97"/>
    <use x="1373.320312" xlink:href="#DejaVuSans-116"/>
    <use x="1412.529297" xlink:href="#DejaVuSans-105"/>
    <use x="1440.3125" xlink:href="#DejaVuSans-111"/>
    <use x="1501.494141" xlink:href="#DejaVuSans-110"/>
    <use x="1564.873047" xlink:href="#DejaVuSans-32"/>
    <use x="1596.660156" xlink:href="#DejaVuSans-84"/>
    <use x="1640.744141" xlink:href="#DejaVuSans-101"/>
    <use x="1702.267578" xlink:href="#DejaVuSans-108"/>
    <use x="1730.050781" xlink:href="#DejaVuSans-101"/>
    <use x="1791.574219" xlink:href="#DejaVuSans-109"/>
    <use x="1888.986328" xlink:href="#DejaVuSans-101"/>
    <use x="1950.509766" xlink:href="#DejaVuSans-116"/>
    <use x="1989.71875" xlink:href="#DejaVuSans-114"/>
    <use x="2030.832031" xlink:href="#DejaVuSans-121"/>
    <use x="2090.011719" xlink:href="#DejaVuSans-32"/>
    <use x="2121.798828" xlink:href="#DejaVuSans-68"/>
    <use x="2198.800781" xlink:href="#DejaVuSans-97"/>
    <use x="2260.080078" xlink:href="#DejaVuSans-116"/>
    <use x="2299.289062" xlink:href="#DejaVuSans-97"/>
   </g>
  </g>
 </g>
 <defs>
  <clipPath id="p751f3b4c7a">
   <rect height="120.96" width="162.327273" x="57.6" y="41.472"/>
  </clipPath>
  <clipPath id="pc69cfac422">
   <rect height="120.96" width="162.327273" x="252.392727" y="41.472"/>
  </clipPath>
  <clipPath id="p04c12ee8c8">
   <rect height="120.96" width="162.327273" x="57.6" y="186.624"/>
  </clipPath>
  <clipPath id="p340026c00d">
   <rect height="120.96" width="162.327273" x="252.392727" y="186.624"/>
  </clipPath>
 </defs>
</svg>
